<?xml version="1.0" standalone="no"?><svg xmlns="http://www.w3.org/2000/svg" viewBox="0 0 1440 320"><path fill="#062233" fill-opacity="1" d="M0,192L0,256L46.5,256L46.5,96L92.9,96L92.9,0L139.4,0L139.4,96L185.8,96L185.8,0L232.3,0L232.3,192L278.7,192L278.7,192L325.2,192L325.2,32L371.6,32L371.6,256L418.1,256L418.1,96L464.5,96L464.5,32L511,32L511,224L557.4,224L557.4,256L603.9,256L603.9,64L650.3,64L650.3,288L696.8,288L696.8,224L743.2,224L743.2,128L789.7,128L789.7,256L836.1,256L836.1,192L882.6,192L882.6,160L929,160L929,192L975.5,192L975.5,256L1021.9,256L1021.9,320L1068.4,320L1068.4,256L1114.8,256L1114.8,224L1161.3,224L1161.3,128L1207.7,128L1207.7,64L1254.2,64L1254.2,192L1300.6,192L1300.6,64L1347.1,64L1347.1,288L1393.5,288L1393.5,96L1440,96L1440,320L1393.5,320L1393.5,320L1347.1,320L1347.1,320L1300.6,320L1300.6,320L1254.2,320L1254.2,320L1207.7,320L1207.7,320L1161.3,320L1161.3,320L1114.8,320L1114.8,320L1068.4,320L1068.4,320L1021.9,320L1021.9,320L975.5,320L975.5,320L929,320L929,320L882.6,320L882.6,320L836.1,320L836.1,320L789.7,320L789.7,320L743.2,320L743.2,320L696.8,320L696.8,320L650.3,320L650.3,320L603.9,320L603.9,320L557.4,320L557.4,320L511,320L511,320L464.5,320L464.5,320L418.1,320L418.1,320L371.6,320L371.6,320L325.2,320L325.2,320L278.7,320L278.7,320L232.3,320L232.3,320L185.8,320L185.8,320L139.4,320L139.4,320L92.9,320L92.9,320L46.5,320L46.5,320L0,320L0,320Z"></path></svg>